<svg version="1.2" baseProfile="tiny-ps" xmlns="http://www.w3.org/2000/svg" viewBox="0 0 109 21" width="109" height="21">
	<title>logo-svg</title>
	<style>
		tspan { white-space:pre }
	</style>
	<path id="BAIT.NEWS " style="paint-order:stroke fill markers;stroke: #e1e1e6;stroke-width: 2;stroke-linejoin: round;" fill="#e1e1e6" aria-label="BAIT.NEWS"  d="M7.33 18.1L2.03 18.1L2.03 2.84L7.02 2.84Q9.51 2.84 10.75 3.87Q12.01 4.89 12.01 6.91Q12.01 7.98 11.4 8.8Q10.79 9.62 9.75 10.07Q10.98 10.42 11.7 11.39Q12.42 12.36 12.42 13.7Q12.42 15.75 11.09 16.93Q9.76 18.1 7.33 18.1ZM7.4 10.96L4.04 10.96L4.04 16.46L7.37 16.46Q8.77 16.46 9.58 15.73Q10.4 15 10.4 13.72Q10.4 10.96 7.4 10.96ZM4.04 4.49L4.04 9.35L7.08 9.35Q8.4 9.35 9.19 8.69Q9.99 8.03 9.99 6.9Q9.99 5.64 9.25 5.07Q8.52 4.49 7.02 4.49L4.04 4.49ZM25.28 18.1L23.82 14.12L17.43 14.12L15.99 18.1L13.92 18.1L19.75 2.84L21.51 2.84L27.35 18.1L25.28 18.1ZM20.63 5.32L18.04 12.46L23.23 12.46L20.63 5.32ZM31.56 2.84L31.56 18.1L29.55 18.1L29.55 2.84L31.56 2.84ZM45.48 2.84L45.48 4.49L40.58 4.49L40.58 18.1L38.57 18.1L38.57 4.49L33.68 4.49L33.68 2.84L45.48 2.84ZM45.2 17.08Q45.2 16.58 45.49 16.25Q45.8 15.91 46.39 15.91Q46.99 15.91 47.3 16.25Q47.61 16.58 47.61 17.08Q47.61 17.57 47.3 17.89Q46.99 18.22 46.39 18.22Q45.8 18.22 45.49 17.89Q45.2 17.57 45.2 17.08ZM62.84 2.84L62.84 18.1L60.82 18.1L53.13 6.34L53.13 18.1L51.11 18.1L51.11 2.84L53.13 2.84L60.84 14.65L60.84 2.84L62.84 2.84ZM75.04 9.4L75.04 11.05L68.43 11.05L68.43 16.46L76.11 16.46L76.11 18.1L66.42 18.1L66.42 2.84L76.01 2.84L76.01 4.49L68.43 4.49L68.43 9.4L75.04 9.4ZM79.5 2.84L81.91 13.29L82.2 15.3L82.63 13.49L85.65 2.84L87.35 2.84L90.29 13.49L90.71 15.33L91.04 13.28L93.41 2.84L95.43 2.84L91.73 18.1L89.9 18.1L86.75 6.98L86.51 5.82L86.27 6.98L83.01 18.1L81.17 18.1L77.49 2.84L79.5 2.84ZM102.16 11.3Q99.57 10.55 98.39 9.47Q97.21 8.38 97.21 6.79Q97.21 4.99 98.65 3.81Q100.1 2.63 102.4 2.63Q103.97 2.63 105.2 3.24Q106.44 3.84 107.11 4.91Q107.79 5.98 107.79 7.25L105.77 7.25Q105.77 5.87 104.89 5.08Q104.01 4.29 102.4 4.29Q100.91 4.29 100.08 4.95Q99.25 5.6 99.25 6.76Q99.25 7.69 100.03 8.34Q100.83 8.98 102.73 9.52Q104.63 10.05 105.7 10.7Q106.78 11.34 107.3 12.2Q107.82 13.06 107.82 14.22Q107.82 16.08 106.38 17.2Q104.93 18.31 102.51 18.31Q100.93 18.31 99.57 17.71Q98.21 17.11 97.46 16.06Q96.73 15.01 96.73 13.68L98.75 13.68Q98.75 15.06 99.77 15.87Q100.8 16.67 102.51 16.67Q104.1 16.67 104.95 16.02Q105.8 15.37 105.8 14.24Q105.8 13.12 105.01 12.51Q104.23 11.9 102.16 11.3Z" />
</svg>